<?xml version="1.0" encoding="UTF-8" standalone="no"?>
<!-- Created with Inkscape (http://www.inkscape.org/) -->

<svg
   width="241.27718"
   height="122.74451"
   viewBox="0 0 63.837918 32.476151"
   version="1.1"
   id="svg1"
   xml:space="preserve"
   inkscape:version="1.4 (e7c3feb100, 2024-10-09)"
   sodipodi:docname="summary.svg"
   xmlns:inkscape="http://www.inkscape.org/namespaces/inkscape"
   xmlns:sodipodi="http://sodipodi.sourceforge.net/DTD/sodipodi-0.dtd"
   xmlns="http://www.w3.org/2000/svg"
   xmlns:svg="http://www.w3.org/2000/svg"><sodipodi:namedview
     id="namedview1"
     pagecolor="#ffffff"
     bordercolor="#000000"
     borderopacity="0.25"
     inkscape:showpageshadow="2"
     inkscape:pageopacity="0.0"
     inkscape:pagecheckerboard="0"
     inkscape:deskcolor="#d1d1d1"
     inkscape:document-units="mm"
     inkscape:zoom="1.7853701"
     inkscape:cx="159.91082"
     inkscape:cy="107.82078"
     inkscape:window-width="1920"
     inkscape:window-height="1181"
     inkscape:window-x="0"
     inkscape:window-y="0"
     inkscape:window-maximized="0"
     inkscape:current-layer="layer1" /><defs
     id="defs1"><marker
       style="overflow:visible"
       id="Triangle"
       refX="0"
       refY="0"
       orient="auto-start-reverse"
       inkscape:stockid="Triangle arrow"
       markerWidth="1"
       markerHeight="1"
       viewBox="0 0 1 1"
       inkscape:isstock="true"
       inkscape:collect="always"
       preserveAspectRatio="xMidYMid"><path
         transform="scale(0.5)"
         style="fill:context-stroke;fill-rule:evenodd;stroke:context-stroke;stroke-width:1pt"
         d="M 5.77,0 -2.88,5 V -5 Z"
         id="path135" /></marker><inkscape:path-effect
       effect="perspective-envelope"
       up_left_point="228.44226,138.16928"
       up_right_point="537.18317,139.98713"
       down_left_point="86.73212,506.50661"
       down_right_point="423.63297,500.42366"
       id="path-effect1866"
       is_visible="true"
       lpeversion="1"
       deform_type="perspective"
       horizontal_mirror="false"
       vertical_mirror="false"
       overflow_perspective="false" /><inkscape:path-effect
       effect="perspective-envelope"
       up_left_point="-20,-14.11758"
       up_right_point="20,-14.11758"
       down_left_point="-48.981342,144.31992"
       down_right_point="-9.0985298,144.31992"
       id="path-effect686"
       is_visible="true"
       lpeversion="1"
       deform_type="perspective"
       horizontal_mirror="false"
       vertical_mirror="false"
       overflow_perspective="false" /><inkscape:perspective
       sodipodi:type="inkscape:persp3d"
       inkscape:vp_x="0 : 56.842818 : 1"
       inkscape:vp_y="0 : 1000 : 0"
       inkscape:vp_z="199.7 : 56.842818 : 1"
       inkscape:persp3d-origin="99.85 : 26.142818 : 1"
       id="perspective665" /></defs><g
     inkscape:label="Layer 1"
     inkscape:groupmode="layer"
     id="layer1"
     transform="translate(-1.3617471,-6.4388688)"><rect
       style="fill:#ffffff;stroke:#000000;stroke-width:0.264583;-inkscape-stroke:none"
       id="rect1"
       width="28.603874"
       height="32.211567"
       x="36.463501"
       y="6.5711603"
       rx="5" /><g
       id="g2"
       transform="matrix(0.08431034,0,0,0.08431034,1.3608854,12.822446)"><path
         d="m 189.5,36.8 c 0.2,2.8 0,5.1 -0.6,6.8 L 153,162 c -0.6,2.1 -2,3.7 -4.2,5 -2.2,1.2 -4.4,1.9 -6.7,1.9 H 31.4 c -9.6,0 -15.3,-2.8 -17.3,-8.4 -0.8,-2.2 -0.8,-3.9 0.1,-5.2 0.9,-1.2 2.4,-1.8 4.6,-1.8 H 123 c 7.4,0 12.6,-1.4 15.4,-4.1 2.8,-2.7 5.7,-8.9 8.6,-18.4 L 179.9,22.4 c 1.8,-5.9 1,-11.1 -2.2,-15.6 C 174.5,2.3 169.9,0 164,0 H 72.7 c -1,0 -3.1,0.4 -6.1,1.1 L 66.7,0.7 C 64.5,0.2 62.6,0 61,0.1 c -1.6,0.1 -3,0.5 -4.3,1.4 -1.3,0.9 -2.4,1.8 -3.2,2.8 -0.8,1 -1.5,2.2 -2.3,3.8 -0.8,1.6 -1.4,3 -1.9,4.3 -0.5,1.3 -1.1,2.7 -1.8,4.2 -0.7,1.5 -1.3,2.7 -2,3.7 -0.5,0.6 -1.2,1.5 -2,2.5 -0.8,1 -1.6,2 -2.2,2.8 -0.6,0.8 -0.9,1.5 -1.1,2.2 -0.2,0.7 -0.1,1.8 0.2,3.2 0.3,1.4 0.4,2.4 0.4,3.1 -0.3,3 -1.4,6.9 -3.3,11.6 -1.9,4.7 -3.6,8.1 -5.1,10.1 -0.3,0.4 -1.2,1.3 -2.6,2.7 -1.4,1.4 -2.3,2.6 -2.6,3.7 -0.3,0.4 -0.3,1.5 -0.1,3.4 0.3,1.8 0.4,3.1 0.3,3.8 -0.3,2.7 -1.3,6.3 -3,10.8 -1.7,4.5 -3.4,8.2 -5,11 -0.2,0.5 -0.9,1.4 -2,2.8 -1.1,1.4 -1.8,2.5 -2,3.4 -0.2,0.6 -0.1,1.8 0.1,3.4 0.2,1.6 0.2,2.8 -0.1,3.6 -0.6,3 -1.8,6.7 -3.6,11 -1.8,4.3 -3.6,7.9 -5.4,11 -0.5,0.8 -1.1,1.7 -2,2.8 -0.8,1.1 -1.5,2 -2,2.8 -0.5,0.8 -0.8,1.6 -1,2.5 -0.1,0.5 0,1.3 0.4,2.3 0.3,1.1 0.4,1.9 0.4,2.6 -0.1,1.1 -0.2,2.6 -0.5,4.4 -0.2,1.8 -0.4,2.9 -0.4,3.2 -1.8,4.8 -1.7,9.9 0.2,15.2 2.2,6.2 6.2,11.5 11.9,15.8 5.7,4.3 11.7,6.4 17.8,6.4 h 110.7 c 5.2,0 10.1,-1.7 14.7,-5.2 4.6,-3.5 7.7,-7.8 9.2,-12.9 l 33,-108.6 c 1.8,-5.8 1,-10.9 -2.2,-15.5 -1.7,-2.5 -4,-4.2 -7.1,-5.4 z"
         id="path183"
         sodipodi:nodetypes="ccccssccsssccsssccsssssscsssscssscccscscscsccsccccccsssscccc"
         style="fill:#eb8c03;fill-opacity:1" /><g
         id="g984"
         transform="matrix(0.33877269,0,0,0.33877269,-18.730411,-31.032478)"
         style="fill:#ffffff;fill-opacity:1"><path
           fill="#eb8c03"
           opacity="1"
           stroke="none"
           d="m 239.43123,470.55198 c 13.69274,0.0657 27.07054,0.0274 41.9942,-6.25466 6.82035,-2.87103 13.13104,-7.52372 16.68093,-16.55499 3.9107,-9.94918 3.07426,-17.23003 -4.2012,-19.2345 -9.35989,-2.57873 -19.39678,-3.97738 -29.6303,-4.69037 -14.26265,-0.99364 -28.57999,-1.7788 -40.05742,-8.44196 -7.43706,-4.31748 -13.57342,-10.06963 -13.61626,-21.83971 -0.0588,-16.1376 10.21306,-34.65778 25.96097,-47.09087 1.71164,-1.35137 3.45929,-2.58908 6.10863,-4.56417 -0.71036,-0.95351 -1.50436,-1.69411 -1.98604,-2.71391 -9.54097,-20.2006 -4.90893,-44.8832 10.76381,-72.06553 14.70375,-25.50175 34.52996,-40.52629 56.75638,-46.89676 21.06726,-6.03822 39.13028,-4.51429 52.93906,6.5045 5.81578,4.64074 9.48199,11.41765 11.73213,20.16359 1.16324,-1.48901 2.06083,-2.57507 2.89149,-3.71055 16.47076,-22.51486 33.25945,-44.31731 51.97968,-63.8402 13.06372,-13.62387 26.58318,-25.965 41.75973,-33.84466 18.16331,-9.43042 34.14768,-7.14924 41.3632,5.86802 4.16403,7.51207 4.72456,16.95882 2.26184,27.9251 3.01417,0.94454 5.7961,0.78854 9.13469,-2.73013 0.96081,-1.01267 2.58751,-1.09937 3.9082,-1.61028 -0.89732,1.40178 -1.72442,2.86471 -2.71965,4.18632 -0.62839,0.83452 -1.50746,1.45657 -2.48634,2.37253 0.62763,1.38682 1.32995,2.52149 1.67898,3.89775 0.1589,0.62655 -0.38181,1.73065 -0.60528,2.6186 -0.73668,-0.008 -2.02839,0.3498 -2.12684,-0.0796 -1.48169,-6.46029 -7.45137,-4.49254 -12.24055,-4.60301 -7.66639,-0.17684 -15.59176,0.35379 -23.12687,-0.20807 -13.46025,-1.00369 -26.58331,6.05831 -39.70134,17.99917 -16.82693,15.31685 -30.97581,33.83804 -44.7755,53.01436 -14.07539,19.55942 -27.85279,39.67663 -42.71813,59.16949 -14.66024,19.22389 -31.54094,34.9329 -51.21613,41.44568 -15.03145,4.97566 -28.83296,5.53726 -41.43622,2.55107 -1.23956,-0.29371 -2.37191,-0.80011 -3.59309,-1.13255 -4.53366,-1.23418 -10.07374,1.55512 -13.63118,6.84335 -4.04758,6.01683 -5.04087,13.33682 -0.96498,15.65411 4.79034,2.7235 10.24917,4.70646 16.09198,5.49129 12.79239,1.71827 26.14642,2.11545 38.95467,3.73233 11.41493,1.44095 22.10269,4.39406 29.78768,12.44605 6.20893,6.50548 8.14811,15.96973 5.49141,28.70047 -6.41888,30.75881 -24.89956,54.20471 -51.50657,64.98165 -13.83139,5.60229 -27.00305,7.96711 -39.90691,9.05713 -19.29828,1.63004 -37.95689,1.47767 -54.17052,-4.43845 -4.24827,-1.55021 -8.16004,-3.83427 -11.63754,-6.57915 -10.13185,-7.9973 -12.5041,-21.42672 -5.50074,-40.30485 6.42471,-17.31755 3.85053,-28.5533 -4.15287,-36.50325 -8.75169,-8.69327 -20.80848,-11.99897 -33.55365,-14.14783 -2.7981,-0.47182 -5.68915,-0.75461 -8.34682,-2.01372 1.2731,-0.42314 2.59863,-1.03573 3.81026,-1.24085 22.38939,-3.79105 43.51345,-4.64513 61.79383,1.6256 16.31182,5.59542 22.41477,22.47599 16.01422,46.69557 -3.16983,11.99456 -0.17891,18.7716 7.57505,20.99046 6.84515,1.95873 14.52595,2.3093 22.17594,3.4003 m 34.18206,-149.72336 c 10.37094,13.58142 32.71129,9.63501 48.54992,-8.69506 8.93535,-10.34094 13.92593,-21.81933 16.64711,-33.60481 3.46195,-14.99354 1.4094,-26.27838 -8.95425,-30.66275 -11.03755,-4.6695 -23.75268,-2.49524 -37.77082,10.61583 -16.14782,15.10292 -27.73843,48.09359 -18.47196,62.34679 M 491.04959,159.64021 c 0.5261,-0.63719 1.55532,-1.58691 1.5013,-1.86347 -0.67256,-3.4432 -6.93413,-6.6777 -10.83928,-5.76798 -0.5854,6.42569 2.0689,8.77912 9.33798,7.63145 z"
           id="path444"
           style="fill:#ffffff;fill-opacity:1"
           inkscape:path-effect="#path-effect1866"
           inkscape:original-d="m 308.57398,489.52948 c 17.97198,0.28702 35.5129,0.46405 52.26446,-5.68182 7.67938,-2.81745 13.8884,-7.46778 14.46234,-16.65726 0.63486,-10.16461 -3.8121,-17.68143 -14.39462,-19.85025 -13.61191,-2.78964 -27.5683,-4.36853 -41.45346,-5.24082 -19.32831,-1.21417 -38.60221,-2.21228 -56.91706,-9.23883 -11.87797,-4.55697 -22.74308,-10.58783 -28.50323,-22.81384 -7.93948,-16.85165 -3.36307,-36.22589 11.55124,-49.25101 1.62713,-1.42105 3.35913,-2.72204 5.93881,-4.80111 -1.4162,-1.02018 -2.84064,-1.81464 -3.98392,-2.90412 -22.72395,-21.65506 -28.76095,-48.23208 -21.14721,-77.78537 7.23101,-28.06773 26.84178,-44.76257 54.23407,-51.89235 26.1018,-6.79387 51.86148,-5.09745 76.34604,7.27152 10.29348,5.2 18.6181,12.78006 25.90145,22.53453 0.9014,-1.65657 1.62732,-2.86556 2.23746,-4.1304 12.16876,-25.22632 25.25836,-49.9252 42.29938,-72.28589 11.9967,-15.74172 25.33566,-30.10979 43.23334,-39.37689 21.54376,-11.15502 45.52649,-8.5931 61.8761,6.59221 9.40319,8.73349 14.5075,19.70715 15.96685,32.4062 4.7276,1.07906 8.62714,0.8887 11.80695,-3.18976 0.9162,-1.1752 3.20251,-1.28212 4.86072,-1.8788 -0.65149,1.62564 -1.17463,3.32057 -2.00122,4.85169 -0.52161,0.96629 -1.49665,1.68779 -2.48133,2.74859 1.52051,1.59774 3.03345,2.90377 4.15039,4.48891 0.5083,0.72137 0.23316,1.99474 0.31342,3.0177 -1.05402,-0.007 -2.73462,0.4088 -3.06805,-0.085 -5.02393,-7.43962 -12.64789,-5.14961 -19.52161,-5.26044 -10.99469,-0.17727 -22.02313,0.46074 -32.98554,-0.15989 -19.56115,-1.10746 -34.85827,7.03987 -47.80047,20.71254 -16.47821,17.40815 -27.58563,38.26835 -37.80054,59.66638 -10.32068,21.61957 -19.87408,43.64514 -31.11182,64.77582 -10.97848,20.64312 -26.49734,37.32788 -49.97247,44.09265 -17.85507,5.14529 -36.09836,5.61349 -54.40561,2.33709 -1.80011,-0.32217 -3.55896,-0.86865 -5.35303,-1.23166 -6.66009,-1.34759 -12.71902,1.55619 -14.9133,7.1121 -2.49002,6.30468 -0.28158,13.99105 6.25611,16.46508 7.68063,2.90656 15.89432,5.04306 24.04886,5.92811 17.86639,1.93908 35.88012,2.50085 53.76049,4.3374 15.95057,1.6383 31.63721,4.85629 45.63419,13.37927 11.28717,6.87296 18.17914,16.75949 20.38437,29.93378 5.28125,31.55087 -8.66574,55.10723 -38.80786,65.52832 -15.58167,5.38708 -31.71887,7.52282 -48.05109,8.38214 -24.36441,1.2818 -48.65781,0.79254 -72.44437,-5.40668 -6.23329,-1.62457 -12.37857,-3.97748 -18.18249,-6.78513 -16.92947,-8.18963 -26.44493,-21.74044 -26.43994,-40.74447 0.005,-17.56632 -8.82369,-29.12058 -23.19126,-37.40094 -15.74368,-9.07346 -33.17074,-12.63184 -50.91416,-15.00153 -3.89356,-0.52005 -7.81304,-0.84576 -11.91729,-2.17764 1.45064,-0.42279 2.87511,-1.04105 4.35582,-1.23935 27.42263,-3.67334 54.74697,-4.32336 81.88645,2.39563 24.21541,5.99503 40.38212,23.51456 43.55192,48.25934 1.55823,12.16415 8.67618,19.08572 19.84928,21.4559 9.8648,2.09259 20.07217,2.57043 30.59244,3.79831 m -25.73331,-155.8204 c 20.53027,14.63403 48.78937,10.57052 61.53744,-9.06992 7.2435,-11.15985 8.59281,-23.63727 6.69382,-36.52405 -2.4295,-16.48742 -10.68048,-28.97394 -27.06018,-33.85307 -17.45136,-5.19838 -33.84305,-2.80011 -46.57782,11.67183 -14.55997,16.54608 -14.04233,52.36465 5.40674,67.77521 M 507.99179,153.78982 c 0.4563,-0.74324 1.48666,-1.85279 1.28165,-2.17408 -2.55417,-4.00286 -13.00125,-7.73421 -18.15369,-6.65113 2.15753,7.47745 7.03501,10.19616 16.87204,8.82521 z" /><path
           fill="#fef8f0"
           opacity="1"
           stroke="none"
           d="m 507.61652,153.8703 c -9.46176,1.29047 -14.33924,-1.42824 -16.49677,-8.90569 5.15244,-1.08308 15.59952,2.64827 18.15369,6.65113 0.20501,0.32129 -0.82535,1.43084 -1.65692,2.25456 z"
           id="path456"
           style="fill:#ffffff;fill-opacity:1" /></g></g><path
       style="fill:#ffffff;stroke:#000000;stroke-width:0.5;stroke-dasharray:none;marker-end:url(#Triangle)"
       d="M 20.744251,17.909633 H 33.24234"
       id="path2" /><path
       style="fill:#ffffff;stroke:#000000;stroke-width:0.5;stroke-dasharray:none;marker-end:url(#Triangle)"
       d="M 34.48871,23.730467 H 21.990621"
       id="path3" /><rect
       style="fill:#ffffff;stroke:#000000;stroke-width:0.178378;-inkscape-stroke:none"
       id="rect3"
       width="19.284302"
       height="21.716553"
       x="43.249252"
       y="14.645373"
       rx="3.3709247" /><g
       id="g3"
       transform="matrix(0.01700025,0,0,0.01700025,41.419223,22.517766)"><path
         fill="#eb8c03"
         opacity="1"
         stroke="none"
         d="m 308.57398,489.52948 c 17.97198,0.28702 35.5129,0.46405 52.26446,-5.68182 7.67938,-2.81745 13.8884,-7.46778 14.46234,-16.65726 0.63486,-10.16461 -3.8121,-17.68143 -14.39462,-19.85025 -13.61191,-2.78964 -27.5683,-4.36853 -41.45346,-5.24082 -19.32831,-1.21417 -38.60221,-2.21228 -56.91706,-9.23883 -11.87797,-4.55697 -22.74308,-10.58783 -28.50323,-22.81384 -7.93948,-16.85165 -3.36307,-36.22589 11.55124,-49.25101 1.62713,-1.42105 3.35913,-2.72204 5.93881,-4.80111 -1.4162,-1.02018 -2.84064,-1.81464 -3.98392,-2.90412 -22.72395,-21.65506 -28.76095,-48.23208 -21.14721,-77.78537 7.23101,-28.06773 26.84178,-44.76257 54.23407,-51.89235 26.1018,-6.79387 51.86148,-5.09745 76.34604,7.27152 10.29348,5.2 18.6181,12.78006 25.90145,22.53453 0.9014,-1.65657 1.62732,-2.86556 2.23746,-4.1304 12.16876,-25.22632 25.25836,-49.9252 42.29938,-72.28589 11.9967,-15.74172 25.33566,-30.10979 43.23334,-39.37689 21.54376,-11.15502 45.52649,-8.5931 61.8761,6.59221 9.40319,8.73349 14.5075,19.70715 15.96685,32.4062 4.7276,1.07906 8.62714,0.8887 11.80695,-3.18976 0.9162,-1.1752 3.20251,-1.28212 4.86072,-1.8788 -0.65149,1.62564 -1.17463,3.32057 -2.00122,4.85169 -0.52161,0.96629 -1.49665,1.68779 -2.48133,2.74859 1.52051,1.59774 3.03345,2.90377 4.15039,4.48891 0.5083,0.72137 0.23316,1.99474 0.31342,3.0177 -1.05402,-0.007 -2.73462,0.4088 -3.06805,-0.085 -5.02393,-7.43962 -12.64789,-5.14961 -19.52161,-5.26044 -10.99469,-0.17727 -22.02313,0.46074 -32.98554,-0.15989 -19.56115,-1.10746 -34.85827,7.03987 -47.80047,20.71254 -16.47821,17.40815 -27.58563,38.26835 -37.80054,59.66638 -10.32068,21.61957 -19.87408,43.64514 -31.11182,64.77582 -10.97848,20.64312 -26.49734,37.32788 -49.97247,44.09265 -17.85507,5.14529 -36.09836,5.61349 -54.40561,2.33709 -1.80011,-0.32217 -3.55896,-0.86865 -5.35303,-1.23166 -6.66009,-1.34759 -12.71902,1.55619 -14.9133,7.1121 -2.49002,6.30468 -0.28158,13.99105 6.25611,16.46508 7.68063,2.90656 15.89432,5.04306 24.04886,5.92811 17.86639,1.93908 35.88012,2.50085 53.76049,4.3374 15.95057,1.6383 31.63721,4.85629 45.63419,13.37927 11.28717,6.87296 18.17914,16.75949 20.38437,29.93378 5.28125,31.55087 -8.66574,55.10723 -38.80786,65.52832 -15.58167,5.38708 -31.71887,7.52282 -48.05109,8.38214 -24.36441,1.2818 -48.65781,0.79254 -72.44437,-5.40668 -6.23329,-1.62457 -12.37857,-3.97748 -18.18249,-6.78513 -16.92947,-8.18963 -26.44493,-21.74044 -26.43994,-40.74447 0.005,-17.56632 -8.82369,-29.12058 -23.19126,-37.40094 -15.74368,-9.07346 -33.17074,-12.63184 -50.91416,-15.00153 -3.89356,-0.52005 -7.81304,-0.84576 -11.91729,-2.17764 1.45064,-0.42279 2.87511,-1.04105 4.35582,-1.23935 27.42263,-3.67334 54.74697,-4.32336 81.88645,2.39563 24.21541,5.99503 40.38212,23.51456 43.55192,48.25934 1.55823,12.16415 8.67618,19.08572 19.84928,21.4559 9.8648,2.09259 20.07217,2.57043 30.59244,3.79831 m -25.73331,-155.8204 c 20.53027,14.63403 48.78937,10.57052 61.53744,-9.06992 7.2435,-11.15985 8.59281,-23.63727 6.69382,-36.52405 -2.4295,-16.48742 -10.68048,-28.97394 -27.06018,-33.85307 -17.45136,-5.19838 -33.84305,-2.80011 -46.57782,11.67183 -14.55997,16.54608 -14.04233,52.36465 5.40674,67.77521 M 507.99179,153.78982 c 0.4563,-0.74324 1.48666,-1.85279 1.28165,-2.17408 -2.55417,-4.00286 -13.00125,-7.73421 -18.15369,-6.65113 2.15753,7.47745 7.03501,10.19616 16.87204,8.82521 z"
         id="path444-5" /><path
         fill="#eb8c04"
         opacity="1"
         stroke="none"
         d="m 748.58655,434.2869 c -17.37915,-1.15201 -27.76892,-4.62876 -50.54761,-16.80796 -0.26587,0.12979 -0.73559,0.2226 -0.76758,0.39612 -1.91052,10.36078 -8.32434,13.40555 -18.21216,11.89725 -4.53894,-0.69238 -9.27124,-0.11789 -14.33947,-0.11789 0,-99.89826 0,-199.4225 0,-299.23114 12.87066,0 25.62786,0 39.03631,0 0,37.04339 0,74.04426 0,110.21274 9.33478,-4.64841 18.04822,-10.59035 27.67755,-13.48175 28.83655,-8.65877 56.47461,-6.38836 80.51178,13.73841 14.63605,12.25506 22.54377,28.82714 26.35822,47.11999 5.92749,28.42605 6.51001,57.01348 -2.409,84.96615 -9.6449,30.22803 -28.73852,51.664 -60.60083,59.15375 -8.45618,1.98776 -17.48663,1.53244 -26.70721,2.15433 m 45.26831,-61.02781 c 1.14538,-2.58111 2.51831,-5.08697 3.40039,-7.75512 7.91601,-23.9444 7.5827,-48.16175 1.38251,-72.29914 -3.0127,-11.72857 -9.35883,-21.71191 -20.10242,-28.14822 -32.3443,-19.37682 -72.91138,2.93411 -74.39002,41.4671 -0.9378,24.43943 -0.28955,48.94153 -0.18414,73.41477 0.006,1.47229 1.14325,3.7019 2.36945,4.28491 8.97662,4.26791 17.78808,9.34155 27.25683,12.02814 25.78077,7.31485 47.48114,-1.22708 60.2674,-22.99244 z"
         id="path446" /><path
         fill="#eb8c04"
         opacity="1"
         stroke="none"
         d="m 1092.5957,223.30926 c 14.141,1.5485 27.4196,4.43627 39.3518,11.71906 20.7512,12.66542 30.0856,32.20706 32.8862,55.46613 0.7937,6.59194 0.9046,13.29449 0.9191,19.94723 0.082,37.65869 0.04,75.31763 0.04,112.9765 0,1.81818 0,3.63635 0,6.19303 -8.2101,0 -16.1473,0.1658 -24.0638,-0.16657 -1.2891,-0.0541 -2.9841,-2.09399 -3.6369,-3.58914 -2.4934,-5.7113 -4.6374,-11.5752 -7.0343,-17.69461 -8.3919,9.07782 -18.3028,16.21014 -30.1943,20.2085 -21.3771,7.18768 -42.8462,8.00006 -63.9989,-0.56754 -23.7555,-9.62183 -37.37176,-31.44183 -36.3537,-57.19891 1.2028,-30.43268 18.9713,-51.76487 49.8051,-58.42389 10.9862,-2.37265 22.3792,-3.33313 33.6367,-3.8584 13.7891,-0.64343 27.631,-0.15332 41.3854,-0.15332 6.0117,-21.44886 -9.5653,-45.41535 -31.655,-49.25959 -22.3446,-3.88861 -43.7234,0.17707 -64.7543,7.46616 -3.5906,1.24448 -7.1824,2.48581 -11.2562,3.89557 -3.3417,-9.64743 -6.5838,-19.00714 -9.9481,-28.71986 26.6229,-13.94111 54.6414,-20.08001 84.8713,-18.24035 m -19.0911,175.98926 c 5.748,-0.78787 11.6731,-0.93622 17.2143,-2.47091 28.6932,-7.94706 37.7507,-36.2656 34.8926,-54.53098 -17.6077,0 -35.219,-0.28696 -52.8108,0.17304 -5.3531,0.13998 -10.8332,1.841 -15.9395,3.69589 -11.6096,4.21722 -17.8783,13.03399 -18.1069,24.3724 -0.2283,11.31495 6.0976,21.34803 17.2733,25.5846 5.1623,1.95691 10.9839,2.17517 17.477,3.17596 z"
         id="path448" /><path
         fill="#eb8c03"
         opacity="1"
         stroke="none"
         d="m 454.85644,376.1535 c -9.12103,-36.26025 -10.78665,-72.03927 5.33936,-106.32165 13.80347,-29.34491 38.51932,-44.07831 70.47083,-46.79476 15.74896,-1.33892 31.29718,0.12772 46.15869,5.97776 23.15106,9.11308 38.9245,25.78714 46.31006,49.22499 10.73437,34.06512 11.54913,68.7558 -1.25452,102.37836 -12.47559,32.76104 -37.79767,50.03057 -72.55792,53.43911 -15.60993,1.5307 -30.96009,0.0398 -45.7186,-5.43957 -24.84775,-9.22519 -40.36508,-27.30979 -48.7479,-52.46424 m 37.50831,-83.13147 c -5.96488,22.47803 -6.38498,45.17749 -0.92328,67.66425 4.75647,19.58331 16.44137,33.1857 37.29669,37.05057 29.81738,5.52572 52.96338,-9.60239 59.39239,-39.24713 4.39295,-20.2562 4.38446,-40.66291 -0.17028,-60.90732 -2.61206,-11.60971 -7.86048,-21.9455 -17.54187,-29.42011 -27.00995,-20.8533 -66.3877,-8.60589 -78.05365,24.85974 z"
         id="path450" /><path
         fill="#eb8c03"
         opacity="1"
         stroke="none"
         d="m 954.12231,261.89276 c -21.95037,7.82703 -31.48162,24.52277 -34.07562,46.03565 -0.81329,6.7452 -0.48486,13.64096 -0.4939,20.46804 -0.0417,31.65903 -0.0183,63.31815 -0.0182,94.97724 0,1.81305 0,3.62607 0,5.85605 -13.2204,0 -26.08081,0 -39.22895,0 0,-66.99463 0,-133.88617 0,-201.38747 8.70472,0 17.3089,-0.0914 25.90558,0.12331 1.00128,0.025 2.4361,1.56691 2.85944,2.70665 2.25506,6.07066 4.25201,12.23721 6.51336,18.88517 18.80164,-21.70442 42.76471,-28.98341 71.26917,-25.2552 -0.88946,12.33485 -1.75488,24.33489 -2.53131,35.10155 -10.44202,0.84143 -20.12421,1.62161 -30.19959,2.48901 z"
         id="path452" /><path
         fill="#fef8f0"
         opacity="1"
         stroke="none"
         d="m 507.61652,153.8703 c -9.46176,1.29047 -14.33924,-1.42824 -16.49677,-8.90569 5.15244,-1.08308 15.59952,2.64827 18.15369,6.65113 0.20501,0.32129 -0.82535,1.43084 -1.65692,2.25456 z"
         id="path456-3" /></g><text
       xml:space="preserve"
       style="font-size:3.01344px;font-family:monospace;-inkscape-font-specification:monospace;text-align:start;writing-mode:lr-tb;direction:ltr;text-anchor:start;fill:#000000;stroke:none;stroke-width:0.355917;stroke-dasharray:none"
       x="20.27667"
       y="12.060091"
       id="text3"><tspan
         sodipodi:role="line"
         id="tspan3"
         style="fill:#000000;stroke:none;stroke-width:0.355918"
         x="20.27667"
         y="12.060091">POST</tspan><tspan
         sodipodi:role="line"
         style="fill:#000000;stroke:none;stroke-width:0.355918"
         x="20.27667"
         y="15.826891"
         id="tspan4">/verify</tspan></text><text
       xml:space="preserve"
       style="font-size:3.31309px;font-family:monospace;-inkscape-font-specification:monospace;text-align:start;writing-mode:lr-tb;direction:ltr;text-anchor:start;fill:#000000;stroke:none;stroke-width:0.391309;stroke-dasharray:none"
       x="39.744785"
       y="9.622035"
       id="text5"><tspan
         sodipodi:role="line"
         id="tspan5"
         style="stroke-width:0.39131"
         x="39.744785"
         y="9.622035">Gobra</tspan><tspan
         sodipodi:role="line"
         style="stroke-width:0.39131"
         x="39.744785"
         y="13.763397"
         id="tspan6">Playground</tspan></text><path
       style="fill:#ffffff;stroke:#000000;stroke-width:0.209;stroke-dasharray:none;marker-end:url(#Triangle)"
       d="m 40.140393,19.6583 h 5.224206"
       id="path6" /><path
       style="fill:#ffffff;stroke:#000000;stroke-width:0.209;stroke-dasharray:none;marker-end:url(#Triangle)"
       d="M 45.885582,22.091411 H 40.661376"
       id="path7" /><text
       xml:space="preserve"
       style="font-size:1.35533px;font-family:monospace;-inkscape-font-specification:monospace;text-align:start;writing-mode:lr-tb;direction:ltr;text-anchor:start;fill:#000000;stroke:none;stroke-width:0.160078;stroke-dasharray:none"
       x="19.021723"
       y="26.985722"
       id="text7"><tspan
         sodipodi:role="line"
         style="stroke-width:0.160078"
         x="19.021723"
         y="26.985722"
         id="tspan8">{</tspan><tspan
         sodipodi:role="line"
         style="stroke-width:0.160078"
         x="19.021723"
         y="28.679884"
         id="tspan9"> &quot;verified&quot;: bool,</tspan><tspan
         sodipodi:role="line"
         style="stroke-width:0.160078"
         x="19.021723"
         y="30.374046"
         id="tspan10"> &quot;timeout&quot;: false,</tspan><tspan
         sodipodi:role="line"
         style="stroke-width:0.160078"
         x="19.021723"
         y="32.068211"
         id="tspan11"> &quot;errors&quot;: Array&lt;Err&gt;,</tspan><tspan
         sodipodi:role="line"
         style="stroke-width:0.160078"
         x="19.021723"
         y="33.762371"
         id="tspan12"> &quot;stats&quot;: JSON</tspan><tspan
         sodipodi:role="line"
         style="stroke-width:0.160078"
         x="19.021723"
         y="35.456535"
         id="tspan13">}</tspan></text><path
       class="cls-1"
       d="m 42.088067,34.497409 c -0.115513,-0.07776 -0.419063,-0.110965 -0.639746,-0.05153 -0.0119,-0.219812 -0.125234,-0.405044 -0.332583,-0.566663 l -0.07676,-0.05153 -0.05115,0.07726 c -0.10056,0.152647 -0.142927,0.35601 -0.127912,0.540868 0.01184,0.113894 0.05146,0.24193 0.127912,0.334827 -0.287226,0.166603 -0.551959,0.128784 -1.724413,0.128784 h -1.810206 c -0.0053,0.264734 0.03726,0.774014 0.361119,1.188591 0.03576,0.04579 0.07501,0.09009 0.117569,0.132772 0.2633,0.263674 0.661117,0.457006 1.256005,0.457567 0.907533,8.21e-4 1.685098,-0.489717 2.158055,-1.675815 0.155637,0.0025 0.566475,0.02791 0.767534,-0.360621 0.0049,-0.0065 0.05115,-0.103052 0.05115,-0.103052 l -0.07663,-0.05153 z m -3.453499,-0.242117 h -0.509031 v 0.509031 h 0.509031 z m 0.657629,0 h -0.509031 v 0.509031 h 0.509031 z m 0.657629,0 h -0.509032 v 0.509031 h 0.509032 z m 0.657628,0 h -0.509031 v 0.509031 h 0.509031 z m -2.630513,0 H 37.46791 v 0.509031 h 0.509031 z m 0.657627,-0.642924 h -0.509031 v 0.509031 h 0.509031 z m 0.657629,0 h -0.509031 v 0.509031 h 0.509031 z m 0.657629,0 h -0.509032 v 0.509031 h 0.509032 z m 0,-0.642987 h -0.509032 v 0.509031 h 0.509032 z"
       id="path1"
       style="fill:#1d63ed;stroke-width:0px" /></g><style
     id="style181">
    @media (prefers-color-scheme: dark) {
      svg { fill: white; }
    }
  </style></svg>
